<svg xmlns="http://www.w3.org/2000/svg" xmlns:xlink="http://www.w3.org/1999/xlink" width="101" zoomAndPan="magnify" viewBox="0 0 75.75 75.749998" height="101" preserveAspectRatio="xMidYMid meet" version="1.0"><defs><clipPath id="fa77638393"><path d="M 0.597656 50 L 26 50 L 26 75.105469 L 0.597656 75.105469 Z M 0.597656 50 " clip-rule="nonzero"/></clipPath><clipPath id="dfc4ab36e8"><path d="M 25 50 L 51 50 L 51 75.105469 L 25 75.105469 Z M 25 50 " clip-rule="nonzero"/></clipPath><clipPath id="8395a8084d"><path d="M 50 25 L 75.351562 25 L 75.351562 51 L 50 51 Z M 50 25 " clip-rule="nonzero"/></clipPath><clipPath id="b284dcdc8c"><path d="M 50 0.355469 L 75.351562 0.355469 L 75.351562 26 L 50 26 Z M 50 0.355469 " clip-rule="nonzero"/></clipPath><clipPath id="bc896e70b1"><path d="M 0.597656 0.261719 L 26 0.261719 L 26 26 L 0.597656 26 Z M 0.597656 0.261719 " clip-rule="nonzero"/></clipPath><clipPath id="670d5c162c"><path d="M 0.597656 25 L 26 25 L 26 51 L 0.597656 51 Z M 0.597656 25 " clip-rule="nonzero"/></clipPath><clipPath id="999d31e0b7"><path d="M 25 50 L 51 50 L 51 75.015625 L 25 75.015625 Z M 25 50 " clip-rule="nonzero"/></clipPath><clipPath id="0f48daa1ca"><path d="M 50 50 L 75.351562 50 L 75.351562 75.015625 L 50 75.015625 Z M 50 50 " clip-rule="nonzero"/></clipPath></defs><g clip-path="url(#fa77638393)"><path fill="#ec1b24" d="M 25.515625 50.1875 L 25.515625 75.109375 L 0.59375 75.109375 L 0.59375 50.1875 L 25.515625 50.1875 " fill-opacity="1" fill-rule="nonzero"/></g><path fill="#f04468" d="M 18.507812 54.34375 C 20.226562 54.34375 21.621094 55.738281 21.621094 57.457031 L 21.621094 68.621094 C 21.621094 70.34375 20.226562 71.734375 18.507812 71.734375 L 7.605469 71.734375 C 5.882812 71.734375 4.488281 70.34375 4.488281 68.621094 L 4.488281 57.457031 C 4.488281 55.738281 5.882812 54.34375 7.605469 54.34375 L 18.507812 54.34375 " fill-opacity="1" fill-rule="nonzero"/><g clip-path="url(#dfc4ab36e8)"><path fill="#fddd0f" d="M 50.4375 50.1875 L 50.4375 75.109375 L 25.515625 75.109375 L 25.515625 50.1875 L 50.4375 50.1875 " fill-opacity="1" fill-rule="nonzero"/></g><path fill="#f6e970" d="M 43.425781 54.34375 C 45.148438 54.34375 46.542969 55.738281 46.542969 57.457031 L 46.542969 68.621094 C 46.542969 70.34375 45.148438 71.734375 43.425781 71.734375 L 32.527344 71.734375 C 30.804688 71.734375 29.410156 70.34375 29.410156 68.621094 L 29.410156 57.457031 C 29.410156 55.738281 30.804688 54.34375 32.527344 54.34375 L 43.425781 54.34375 " fill-opacity="1" fill-rule="nonzero"/><path fill="#256671" d="M 50.4375 25.269531 L 50.4375 50.1875 L 25.515625 50.1875 L 25.515625 25.269531 L 50.4375 25.269531 " fill-opacity="1" fill-rule="nonzero"/><path fill="#43aa8d" d="M 43.425781 29.425781 C 45.148438 29.425781 46.542969 30.820312 46.542969 32.539062 L 46.542969 43.699219 C 46.542969 45.421875 45.148438 46.816406 43.425781 46.816406 L 32.527344 46.816406 C 30.804688 46.816406 29.410156 45.421875 29.410156 43.699219 L 29.410156 32.539062 C 29.410156 30.820312 30.804688 29.425781 32.527344 29.425781 L 43.425781 29.425781 " fill-opacity="1" fill-rule="nonzero"/><g clip-path="url(#8395a8084d)"><path fill="#782e99" d="M 75.355469 25.269531 L 75.355469 50.1875 L 50.4375 50.1875 L 50.4375 25.269531 L 75.355469 25.269531 " fill-opacity="1" fill-rule="nonzero"/></g><path fill="#8944a7" d="M 68.347656 29.425781 C 70.066406 29.425781 71.460938 30.820312 71.460938 32.539062 L 71.460938 43.699219 C 71.460938 45.421875 70.066406 46.816406 68.347656 46.816406 L 57.445312 46.816406 C 55.726562 46.816406 54.332031 45.421875 54.332031 43.699219 L 54.332031 32.539062 C 54.332031 30.820312 55.726562 29.425781 57.445312 29.425781 L 68.347656 29.425781 " fill-opacity="1" fill-rule="nonzero"/><g clip-path="url(#b284dcdc8c)"><path fill="#fddd0f" d="M 75.355469 0.351562 L 75.355469 25.269531 L 50.4375 25.269531 L 50.4375 0.351562 L 75.355469 0.351562 " fill-opacity="1" fill-rule="nonzero"/></g><path fill="#f6e970" d="M 68.347656 4.503906 C 70.066406 4.503906 71.460938 5.898438 71.460938 7.621094 L 71.460938 18.78125 C 71.460938 20.5 70.066406 21.898438 68.347656 21.898438 L 57.445312 21.898438 C 55.726562 21.898438 54.332031 20.5 54.332031 18.78125 L 54.332031 7.621094 C 54.332031 5.898438 55.726562 4.503906 57.445312 4.503906 L 68.347656 4.503906 " fill-opacity="1" fill-rule="nonzero"/><g clip-path="url(#bc896e70b1)"><path fill="#ec1b24" d="M 25.519531 25.175781 L 0.59375 25.175781 L 0.59375 0.257812 L 25.519531 0.257812 L 25.519531 25.175781 " fill-opacity="1" fill-rule="nonzero"/></g><path fill="#f04468" d="M 21.363281 18.167969 C 21.363281 19.886719 19.96875 21.28125 18.25 21.28125 L 7.085938 21.28125 C 5.363281 21.28125 3.96875 19.886719 3.96875 18.167969 L 3.96875 7.265625 C 3.96875 5.546875 5.363281 4.152344 7.085938 4.152344 L 18.25 4.152344 C 19.96875 4.152344 21.363281 5.546875 21.363281 7.265625 L 21.363281 18.167969 " fill-opacity="1" fill-rule="nonzero"/><g clip-path="url(#670d5c162c)"><path fill="#fddd0f" d="M 25.519531 50.097656 L 0.59375 50.097656 L 0.59375 25.175781 L 25.519531 25.175781 L 25.519531 50.097656 " fill-opacity="1" fill-rule="nonzero"/></g><path fill="#f6e970" d="M 21.363281 43.085938 C 21.363281 44.808594 19.96875 46.203125 18.25 46.203125 L 7.085938 46.203125 C 5.363281 46.203125 3.96875 44.808594 3.96875 43.085938 L 3.96875 32.1875 C 3.96875 30.464844 5.363281 29.070312 7.085938 29.070312 L 18.25 29.070312 C 19.96875 29.070312 21.363281 30.464844 21.363281 32.1875 L 21.363281 43.085938 " fill-opacity="1" fill-rule="nonzero"/><path fill="#256671" d="M 50.4375 50.097656 L 25.519531 50.097656 L 25.519531 25.175781 L 50.4375 25.175781 L 50.4375 50.097656 " fill-opacity="1" fill-rule="nonzero"/><path fill="#43aa8d" d="M 46.28125 43.085938 C 46.28125 44.808594 44.886719 46.203125 43.167969 46.203125 L 32.007812 46.203125 C 30.285156 46.203125 28.890625 44.808594 28.890625 43.085938 L 28.890625 32.1875 C 28.890625 30.464844 30.285156 29.070312 32.007812 29.070312 L 43.167969 29.070312 C 44.886719 29.070312 46.28125 30.464844 46.28125 32.1875 L 46.28125 43.085938 " fill-opacity="1" fill-rule="nonzero"/><g clip-path="url(#999d31e0b7)"><path fill="#782e99" d="M 50.4375 75.019531 L 25.519531 75.019531 L 25.519531 50.097656 L 50.4375 50.097656 L 50.4375 75.019531 " fill-opacity="1" fill-rule="nonzero"/></g><path fill="#8944a7" d="M 46.28125 68.007812 C 46.28125 69.730469 44.886719 71.121094 43.167969 71.121094 L 32.007812 71.121094 C 30.285156 71.121094 28.890625 69.730469 28.890625 68.007812 L 28.890625 57.105469 C 28.890625 55.386719 30.285156 53.992188 32.007812 53.992188 L 43.167969 53.992188 C 44.886719 53.992188 46.28125 55.386719 46.28125 57.105469 L 46.28125 68.007812 " fill-opacity="1" fill-rule="nonzero"/><g clip-path="url(#0f48daa1ca)"><path fill="#fddd0f" d="M 75.355469 75.019531 L 50.4375 75.019531 L 50.4375 50.097656 L 75.355469 50.097656 L 75.355469 75.019531 " fill-opacity="1" fill-rule="nonzero"/></g><path fill="#f6e970" d="M 71.203125 68.007812 C 71.203125 69.730469 69.808594 71.121094 68.085938 71.121094 L 56.925781 71.121094 C 55.207031 71.121094 53.808594 69.730469 53.808594 68.007812 L 53.808594 57.105469 C 53.808594 55.386719 55.207031 53.992188 56.925781 53.992188 L 68.085938 53.992188 C 69.808594 53.992188 71.203125 55.386719 71.203125 57.105469 L 71.203125 68.007812 " fill-opacity="1" fill-rule="nonzero"/></svg>