<svg xmlns="http://www.w3.org/2000/svg" xmlns:xlink="http://www.w3.org/1999/xlink" width="320" zoomAndPan="magnify" viewBox="0 0 240 61.499998" height="82" preserveAspectRatio="xMidYMid meet" version="1.0"><defs><g/><clipPath id="c5f0c860f0"><path d="M 99 8.792969 L 234.917969 8.792969 L 234.917969 52.210938 L 99 52.210938 Z M 99 8.792969 " clip-rule="nonzero"/></clipPath><clipPath id="ab5ab4897e"><path d="M 130.78125 8.792969 L 228.59375 8.792969 C 230.726562 8.792969 232.695312 9.9375 233.75 11.789062 C 234.808594 13.640625 234.789062 15.917969 233.703125 17.753906 L 218.605469 43.25 C 215.3125 48.804688 209.335938 52.210938 202.882812 52.210938 L 105.066406 52.210938 C 102.933594 52.210938 100.964844 51.066406 99.910156 49.214844 C 98.855469 47.363281 98.875 45.085938 99.960938 43.25 L 115.058594 17.753906 C 118.347656 12.199219 124.324219 8.792969 130.78125 8.792969 Z M 130.78125 8.792969 " clip-rule="nonzero"/></clipPath></defs><g clip-path="url(#c5f0c860f0)"><g clip-path="url(#ab5ab4897e)"><path fill="#fb750d" d="M 94.652344 8.792969 L 238.988281 8.792969 L 238.988281 52.210938 L 94.652344 52.210938 Z M 94.652344 8.792969 " fill-opacity="1" fill-rule="nonzero"/></g></g><g fill="#ffffff" fill-opacity="1"><g transform="translate(9.918752, 44.903757)"><g><path d="M 19.5625 -13.015625 L 25.1875 -13.015625 L 25.1875 -3.03125 C 23.800781 -2.0625 22.125 -1.265625 20.15625 -0.640625 C 18.195312 -0.015625 16.328125 0.296875 14.546875 0.296875 C 10.648438 0.296875 7.394531 -0.953125 4.78125 -3.453125 C 2.175781 -5.953125 0.875 -9.066406 0.875 -12.796875 C 0.875 -16.503906 2.210938 -19.597656 4.890625 -22.078125 C 7.578125 -24.566406 10.941406 -25.8125 14.984375 -25.8125 C 16.890625 -25.8125 18.78125 -25.46875 20.65625 -24.78125 C 22.53125 -24.101562 24.128906 -23.179688 25.453125 -22.015625 L 21.796875 -17.59375 C 20.867188 -18.4375 19.796875 -19.109375 18.578125 -19.609375 C 17.359375 -20.109375 16.148438 -20.359375 14.953125 -20.359375 C 12.859375 -20.359375 11.097656 -19.632812 9.671875 -18.1875 C 8.242188 -16.738281 7.53125 -14.941406 7.53125 -12.796875 C 7.53125 -10.628906 8.25 -8.8125 9.6875 -7.34375 C 11.125 -5.882812 12.90625 -5.15625 15.03125 -5.15625 C 16.394531 -5.15625 17.90625 -5.566406 19.5625 -6.390625 Z M 19.5625 -13.015625 "/></g></g></g><g fill="#ffffff" fill-opacity="1"><g transform="translate(35.001997, 44.903757)"><g><path d="M 11.375 -20 C 14.070312 -20 16.171875 -19.367188 17.671875 -18.109375 C 19.171875 -16.859375 19.9375 -15.113281 19.96875 -12.875 L 19.96875 0 L 13.78125 0 L 13.78125 -2.265625 C 12.488281 -0.554688 10.476562 0.296875 7.75 0.296875 C 5.675781 0.296875 4.03125 -0.273438 2.8125 -1.421875 C 1.59375 -2.566406 0.984375 -4.054688 0.984375 -5.890625 C 0.984375 -7.765625 1.632812 -9.21875 2.9375 -10.25 C 4.25 -11.289062 6.125 -11.820312 8.5625 -11.84375 L 13.75 -11.84375 L 13.75 -12.140625 C 13.75 -13.109375 13.425781 -13.867188 12.78125 -14.421875 C 12.132812 -14.972656 11.175781 -15.25 9.90625 -15.25 C 8.125 -15.25 6.160156 -14.695312 4.015625 -13.59375 L 2.234375 -17.765625 C 5.421875 -19.253906 8.46875 -20 11.375 -20 Z M 9.6875 -3.984375 C 10.6875 -3.984375 11.5625 -4.234375 12.3125 -4.734375 C 13.070312 -5.234375 13.550781 -5.882812 13.75 -6.6875 L 13.75 -8.453125 L 9.765625 -8.453125 C 7.859375 -8.453125 6.90625 -7.742188 6.90625 -6.328125 C 6.90625 -5.597656 7.148438 -5.023438 7.640625 -4.609375 C 8.128906 -4.191406 8.8125 -3.984375 9.6875 -3.984375 Z M 9.6875 -3.984375 "/></g></g></g><g fill="#ffffff" fill-opacity="1"><g transform="translate(54.856483, 44.903757)"><g><path d="M 28.84375 -20 C 31.019531 -20 32.742188 -19.3125 34.015625 -17.9375 C 35.296875 -16.5625 35.9375 -14.726562 35.9375 -12.4375 L 35.9375 0 L 29.65625 0 L 29.65625 -10.671875 C 29.65625 -11.847656 29.347656 -12.769531 28.734375 -13.4375 C 28.128906 -14.101562 27.300781 -14.4375 26.25 -14.4375 C 25.082031 -14.414062 24.148438 -13.972656 23.453125 -13.109375 C 22.753906 -12.242188 22.40625 -11.128906 22.40625 -9.765625 L 22.40625 0 L 16.09375 0 L 16.09375 -10.671875 C 16.09375 -11.847656 15.789062 -12.769531 15.1875 -13.4375 C 14.59375 -14.101562 13.769531 -14.4375 12.71875 -14.4375 C 11.53125 -14.414062 10.582031 -13.960938 9.875 -13.078125 C 9.164062 -12.203125 8.8125 -11.097656 8.8125 -9.765625 L 8.8125 0 L 2.515625 0 L 2.515625 -19.703125 L 8.8125 -19.703125 L 8.8125 -16.453125 C 10.15625 -18.765625 12.320312 -19.945312 15.3125 -20 C 16.90625 -20 18.28125 -19.601562 19.4375 -18.8125 C 20.59375 -18.019531 21.414062 -16.925781 21.90625 -15.53125 C 23.195312 -18.457031 25.507812 -19.945312 28.84375 -20 Z M 28.84375 -20 "/></g></g></g><g fill="#ffffff" fill-opacity="1"><g transform="translate(90.689784, 44.903757)"><g><path d="M 11.15625 -19.921875 C 14.5625 -19.921875 17.125 -18.875 18.84375 -16.78125 C 20.5625 -14.6875 21.3125 -11.8125 21.09375 -8.15625 L 7.234375 -8.15625 C 7.554688 -6.976562 8.117188 -6.070312 8.921875 -5.4375 C 9.722656 -4.8125 10.707031 -4.5 11.875 -4.5 C 13.6875 -4.5 15.257812 -5.171875 16.59375 -6.515625 L 19.921875 -3.25 C 17.804688 -0.9375 14.941406 0.21875 11.328125 0.21875 C 8.140625 0.21875 5.597656 -0.691406 3.703125 -2.515625 C 1.816406 -4.347656 0.875 -6.773438 0.875 -9.796875 C 0.875 -12.847656 1.816406 -15.296875 3.703125 -17.140625 C 5.597656 -18.992188 8.082031 -19.921875 11.15625 -19.921875 Z M 7.125 -11.546875 L 15.03125 -11.546875 C 15.03125 -12.742188 14.679688 -13.707031 13.984375 -14.4375 C 13.285156 -15.164062 12.363281 -15.53125 11.21875 -15.53125 C 10.144531 -15.53125 9.242188 -15.171875 8.515625 -14.453125 C 7.785156 -13.734375 7.320312 -12.765625 7.125 -11.546875 Z M 7.125 -11.546875 "/></g></g></g><g fill="#000000" fill-opacity="1"><g transform="translate(104.92981, 44.565017)"><g><path d="M 9.578125 -20 C 12.484375 -20 15.191406 -19.253906 17.703125 -17.765625 L 15.53125 -13.671875 C 13.09375 -14.992188 11.023438 -15.65625 9.328125 -15.65625 C 8.035156 -15.65625 7.390625 -15.203125 7.390625 -14.296875 C 7.390625 -13.804688 7.738281 -13.394531 8.4375 -13.0625 C 9.144531 -12.738281 10.007812 -12.441406 11.03125 -12.171875 C 12.0625 -11.898438 13.082031 -11.5625 14.09375 -11.15625 C 15.101562 -10.757812 15.960938 -10.125 16.671875 -9.25 C 17.378906 -8.375 17.734375 -7.300781 17.734375 -6.03125 C 17.734375 -4.0625 16.960938 -2.519531 15.421875 -1.40625 C 13.890625 -0.300781 11.894531 0.25 9.4375 0.25 C 5.945312 0.25 2.992188 -0.671875 0.578125 -2.515625 L 2.59375 -6.546875 C 4.90625 -4.910156 7.234375 -4.09375 9.578125 -4.09375 C 11.015625 -4.09375 11.734375 -4.546875 11.734375 -5.453125 C 11.734375 -5.960938 11.382812 -6.382812 10.6875 -6.71875 C 10 -7.0625 9.15625 -7.367188 8.15625 -7.640625 C 7.15625 -7.910156 6.15625 -8.242188 5.15625 -8.640625 C 4.15625 -9.046875 3.304688 -9.675781 2.609375 -10.53125 C 1.921875 -11.382812 1.578125 -12.457031 1.578125 -13.75 C 1.578125 -15.71875 2.316406 -17.25 3.796875 -18.34375 C 5.285156 -19.445312 7.210938 -20 9.578125 -20 Z M 9.578125 -20 "/></g></g></g><g fill="#000000" fill-opacity="1"><g transform="translate(121.599809, 44.565017)"><g><path d="M 14 -5.453125 L 15.25 -1.0625 C 13.707031 -0.15625 11.953125 0.296875 9.984375 0.296875 C 8.035156 0.296875 6.457031 -0.242188 5.25 -1.328125 C 4.039062 -2.421875 3.4375 -3.960938 3.4375 -5.953125 L 3.4375 -14.65625 L 0.6875 -14.65625 L 0.6875 -18.796875 L 3.4375 -18.796875 L 3.4375 -24.28125 L 9.71875 -24.28125 L 9.71875 -18.828125 L 14.875 -18.828125 L 14.875 -14.65625 L 9.71875 -14.65625 L 9.71875 -6.953125 C 9.71875 -6.191406 9.867188 -5.632812 10.171875 -5.28125 C 10.484375 -4.925781 10.941406 -4.765625 11.546875 -4.796875 C 12.140625 -4.796875 12.957031 -5.015625 14 -5.453125 Z M 14 -5.453125 "/></g></g></g><g fill="#000000" fill-opacity="1"><g transform="translate(135.41827, 44.565017)"><g><path d="M 11.65625 -19.921875 C 14.875 -19.921875 17.46875 -19 19.4375 -17.15625 C 21.414062 -15.320312 22.40625 -12.894531 22.40625 -9.875 C 22.40625 -6.851562 21.414062 -4.414062 19.4375 -2.5625 C 17.46875 -0.707031 14.875 0.21875 11.65625 0.21875 C 8.414062 0.21875 5.804688 -0.707031 3.828125 -2.5625 C 1.859375 -4.414062 0.875 -6.851562 0.875 -9.875 C 0.875 -12.894531 1.859375 -15.320312 3.828125 -17.15625 C 5.804688 -19 8.414062 -19.921875 11.65625 -19.921875 Z M 11.65625 -14.921875 C 10.34375 -14.921875 9.273438 -14.441406 8.453125 -13.484375 C 7.640625 -12.535156 7.234375 -11.304688 7.234375 -9.796875 C 7.234375 -8.265625 7.640625 -7.03125 8.453125 -6.09375 C 9.273438 -5.15625 10.34375 -4.6875 11.65625 -4.6875 C 12.945312 -4.6875 14 -5.15625 14.8125 -6.09375 C 15.632812 -7.03125 16.046875 -8.265625 16.046875 -9.796875 C 16.046875 -11.304688 15.632812 -12.535156 14.8125 -13.484375 C 14 -14.441406 12.945312 -14.921875 11.65625 -14.921875 Z M 11.65625 -14.921875 "/></g></g></g><g fill="#000000" fill-opacity="1"><g transform="translate(156.621508, 44.565017)"><g><path d="M 8.84375 -19.703125 L 8.84375 -16.375 C 10.238281 -18.738281 12.375 -19.945312 15.25 -20 L 15.25 -14.296875 C 13.445312 -14.460938 11.972656 -14.160156 10.828125 -13.390625 C 9.679688 -12.628906 9.019531 -11.539062 8.84375 -10.125 L 8.84375 0 L 2.515625 0 L 2.515625 -19.703125 Z M 8.84375 -19.703125 "/></g></g></g><g fill="#000000" fill-opacity="1"><g transform="translate(170.147501, 44.565017)"><g><path d="M 11.15625 -19.921875 C 14.5625 -19.921875 17.125 -18.875 18.84375 -16.78125 C 20.5625 -14.6875 21.3125 -11.8125 21.09375 -8.15625 L 7.234375 -8.15625 C 7.554688 -6.976562 8.117188 -6.070312 8.921875 -5.4375 C 9.722656 -4.8125 10.707031 -4.5 11.875 -4.5 C 13.6875 -4.5 15.257812 -5.171875 16.59375 -6.515625 L 19.921875 -3.25 C 17.804688 -0.9375 14.941406 0.21875 11.328125 0.21875 C 8.140625 0.21875 5.597656 -0.691406 3.703125 -2.515625 C 1.816406 -4.347656 0.875 -6.773438 0.875 -9.796875 C 0.875 -12.847656 1.816406 -15.296875 3.703125 -17.140625 C 5.597656 -18.992188 8.082031 -19.921875 11.15625 -19.921875 Z M 7.125 -11.546875 L 15.03125 -11.546875 C 15.03125 -12.742188 14.679688 -13.707031 13.984375 -14.4375 C 13.285156 -15.164062 12.363281 -15.53125 11.21875 -15.53125 C 10.144531 -15.53125 9.242188 -15.171875 8.515625 -14.453125 C 7.785156 -13.734375 7.320312 -12.765625 7.125 -11.546875 Z M 7.125 -11.546875 "/></g></g></g></svg>