<svg xmlns="http://www.w3.org/2000/svg" x="0px" y="0px" width="100" fill="white" height="100" viewBox="0 0 48 48">
<path d="M 12.5 4 C 10.032499 4 8 6.0324991 8 8.5 L 8 22.050781 C 6.8698775 22.287658 6 23.307501 6 24.5 L 6 35.5 C 6 36.692499 6.8698775 37.712342 8 37.949219 L 8 39.5 C 8 41.967501 10.032499 44 12.5 44 L 35.5 44 C 37.967501 44 40 41.967501 40 39.5 L 40 37.949219 C 41.130122 37.712342 42 36.692499 42 35.5 L 42 24.5 C 42 23.307501 41.130122 22.287658 40 22.050781 L 40 18.5 A 1.50015 1.50015 0 0 0 39.560547 17.439453 L 39.544922 17.423828 L 26.560547 4.4394531 A 1.50015 1.50015 0 0 0 25.5 4 L 12.5 4 z M 12.5 7 L 24 7 L 24 15.5 C 24 17.967501 26.032499 20 28.5 20 L 37 20 L 37 22 L 11 22 L 11 8.5 C 11 7.6535009 11.653501 7 12.5 7 z M 27 9.1210938 L 34.878906 17 L 28.5 17 C 27.653501 17 27 16.346499 27 15.5 L 27 9.1210938 z M 9 25 L 39 25 L 39 35 L 9 35 L 9 25 z M 16.5 26 C 16.096 26 15.731172 26.243234 15.576172 26.615234 L 13.076172 32.615234 C 12.864172 33.125234 13.105234 33.710828 13.615234 33.923828 C 14.125234 34.135828 14.711828 33.893766 14.923828 33.384766 L 15.082031 33 L 17.917969 33 L 18.076172 33.384766 C 18.236172 33.767766 18.609 34 19 34 C 19.128 34 19.258766 33.974875 19.384766 33.921875 C 19.894766 33.709875 20.133875 33.123281 19.921875 32.613281 L 17.423828 26.615234 C 17.267828 26.242234 16.904 26 16.5 26 z M 22 26 C 21.448 26 21 26.448 21 27 L 21 33 C 21 33.552 21.448 34 22 34 C 22.552 34 23 33.552 23 33 L 23 32 L 24 32 C 25.654 32 27 30.654 27 29 C 27 27.346 25.654 26 24 26 L 22 26 z M 29 26 C 28.448 26 28 26.448 28 27 L 28 33 C 28 33.552 28.448 34 29 34 C 29.552 34 30 33.552 30 33 L 30 30.962891 L 32.232422 33.640625 C 32.430422 33.877625 32.714 34 33 34 C 33.226 34 33.453625 33.923578 33.640625 33.767578 C 34.064625 33.413578 34.120578 32.783375 33.767578 32.359375 L 31.802734 30 L 33.767578 27.640625 C 34.121578 27.216625 34.064625 26.585422 33.640625 26.232422 C 33.216625 25.878422 32.585422 25.936375 32.232422 26.359375 L 30 29.037109 L 30 27 C 30 26.448 29.552 26 29 26 z M 23 28 L 24 28 C 24.551 28 25 28.449 25 29 C 25 29.551 24.551 30 24 30 L 23 30 L 23 28 z M 16.5 29.599609 L 17.082031 31 L 15.917969 31 L 16.5 29.599609 z M 11 38 L 37 38 L 37 39.5 C 37 40.346499 36.346499 41 35.5 41 L 12.5 41 C 11.653501 41 11 40.346499 11 39.5 L 11 38 z"></path>
</svg>