<svg xmlns="http://www.w3.org/2000/svg" x="0px" y="0px" width="140" height="140" fill="white" viewBox="0 0 48 48">
<path d="M 24.019531 2 C 16.478941 2 10.358789 7.1730886 8.0449219 15 L 7.4921875 15 A 1.50015 1.50015 0 0 0 5.9921875 16.5 L 5.9921875 18.082031 A 1.5 1.5 0 0 0 5.5 18 A 1.5 1.5 0 0 0 5.5 21 A 1.5 1.5 0 0 0 5.9921875 20.916016 L 5.9921875 28.207031 C 5.9921875 31.577882 8.2373931 34.585921 11.505859 35.449219 C 11.724364 35.506918 11.999737 35.559887 12.232422 35.617188 C 12.876961 38.111634 14.159075 40.519831 15.996094 42.417969 C 17.95379 44.4408 20.605219 45.848133 23.652344 45.958984 A 1.50015 1.50015 0 0 0 24.019531 46 A 1.50015 1.50015 0 0 0 24.386719 45.958984 C 27.433844 45.848133 30.085273 44.4408 32.042969 42.417969 C 33.882917 40.516803 35.167039 38.10417 35.810547 35.605469 C 36.025277 35.552313 36.281851 35.502698 36.484375 35.449219 C 39.592221 34.629541 41.710145 31.853686 41.917969 28.6875 A 1.50015 1.50015 0 0 0 41.998047 28.207031 L 41.998047 20.914062 A 1.5 1.5 0 0 0 42.5 21 A 1.5 1.5 0 0 0 42.5 18 A 1.5 1.5 0 0 0 41.998047 18.087891 L 41.998047 16.5 A 1.50015 1.50015 0 0 0 40.498047 15 L 39.996094 15 C 37.681796 7.1729952 31.559867 2 24.019531 2 z M 24.019531 5 C 29.961044 5 34.715626 8.6996841 36.853516 15 L 11.185547 15 C 13.322154 8.6996565 18.07758 5 24.019531 5 z M 9.6464844 18 L 38.804688 18 L 38.998047 18 L 38.998047 28.207031 C 38.998047 30.25218 37.651506 32.037121 35.71875 32.546875 C 32.982588 33.269399 28.981861 34 23.994141 34 C 19.00642 34 15.007646 33.269399 12.271484 32.546875 C 10.337951 32.036172 8.9921875 30.25218 8.9921875 28.207031 L 8.9921875 18.070312 A 1.50015 1.50015 0 0 0 9.6464844 18 z M 13.5 20 A 1.50015 1.50015 0 0 0 12 21.5 L 12 27.5 A 1.50015 1.50015 0 0 0 13.5 29 L 34.5 29 A 1.50015 1.50015 0 0 0 36 27.5 L 36 21.5 A 1.50015 1.50015 0 0 0 34.5 20 L 13.5 20 z M 15 23 L 33 23 L 33 26 L 15 26 L 15 23 z M 32.435547 36.291016 C 31.848035 37.785504 30.9767 39.205785 29.886719 40.332031 C 28.295788 41.975898 26.318481 43 24.019531 43 C 21.720581 43 19.743274 41.975894 18.152344 40.332031 C 17.064747 39.208249 16.194916 37.791666 15.607422 36.300781 C 17.999603 36.700303 20.779665 37 23.994141 37 C 27.232919 37 30.031461 36.69528 32.435547 36.291016 z"></path>
</svg>